<svg id="Layer_1" data-name="Layer 1" xmlns="http://www.w3.org/2000/svg" viewBox="0 0 212.68 164.35"><defs><style>.cls-1,.cls-2{fill:none;stroke:#000;stroke-miterlimit:10;}.cls-2{stroke-width:2px;}.cls-3{font-size:9px;font-family:MyriadPro-Regular, Myriad Pro;}.cls-4{letter-spacing:0em;}.cls-5{letter-spacing:-0.01em;}.cls-6{letter-spacing:-0.01em;}.cls-7{letter-spacing:-0.01em;}.cls-8{letter-spacing:-0.01em;}</style></defs><line class="cls-1" x1="72.68" y1="7.39" x2="212.68" y2="7.07"/><line class="cls-2" x1="94.06" y1="14.13" x2="94.06" y2="80.46"/><polygon points="94.06 7.07 90 17.02 94.06 14.66 98.13 17.02 94.06 7.07"/><line class="cls-2" x1="140.01" y1="14.59" x2="140.01" y2="140.24"/><polygon points="140.01 7.53 135.95 17.48 140.01 15.12 144.08 17.48 140.01 7.53"/><line class="cls-2" x1="186.83" y1="7.23" x2="186.83" y2="92.97"/><polygon points="186.83 100.03 182.77 90.08 186.83 92.44 190.9 90.08 186.83 100.03"/><line class="cls-1" x1="174.78" y1="100.03" x2="198.28" y2="100.03"/><line class="cls-1" x1="127.69" y1="140.24" x2="151.18" y2="140.24"/><line class="cls-1" x1="81.86" y1="80.46" x2="105.36" y2="80.46"/><text class="cls-3" transform="translate(0 7.53)"><tspan class="cls-4">R</tspan><tspan x="4.88" y="0">e</tspan><tspan class="cls-5" x="9.39" y="0">f</tspan><tspan x="11.9" y="0">e</tspan><tspan class="cls-6" x="16.41" y="0">r</tspan><tspan x="19.26" y="0">en</tspan><tspan class="cls-7" x="28.76" y="0">c</tspan><tspan x="32.74" y="0">e Ene</tspan><tspan class="cls-8" x="53.09" y="0">r</tspan><tspan x="55.96" y="0">gy</tspan></text><text x="-36.24" y="-142.36"/><text class="cls-3" transform="translate(86.1 91.06)">ε₀, I₂</text><text class="cls-3" transform="translate(71.53 47.38)">D₀, I₂</text><text class="cls-3" transform="translate(130.64 151.3)">ε₀, H₂</text><text class="cls-3" transform="translate(177.79 111.18)">ε₀, HI</text><text class="cls-3" transform="translate(114.61 75.36)">D₀, H₂</text><text class="cls-3" transform="translate(162.05 55.82)">D₀, HI</text></svg>